<mxfile host="app.diagrams.net" modified="2021-02-08T14:46:43.889Z" agent="5.0 (Windows NT 10.0; Win64; x64) AppleWebKit/537.36 (KHTML, like Gecko) Chrome/88.0.4324.146 Safari/537.36" etag="qAvTESqXVg_YR4jtiVTZ" version="14.2.5" type="github">
  <diagram name="Page-1" id="9f46799a-70d6-7492-0946-bef42562c5a5">
    <mxGraphModel dx="1422" dy="882" grid="1" gridSize="10" guides="1" tooltips="1" connect="1" arrows="1" fold="1" page="1" pageScale="1" pageWidth="1100" pageHeight="850" background="#ffffff" math="0" shadow="0">
      <root>
        <mxCell id="0" />
        <mxCell id="1" parent="0" />
        <mxCell id="TcV-RCdQcz_-0KE_Q2Oa-8" style="edgeStyle=orthogonalEdgeStyle;rounded=0;orthogonalLoop=1;jettySize=auto;html=1;" edge="1" parent="1" source="TcV-RCdQcz_-0KE_Q2Oa-2" target="TcV-RCdQcz_-0KE_Q2Oa-3">
          <mxGeometry relative="1" as="geometry" />
        </mxCell>
        <mxCell id="TcV-RCdQcz_-0KE_Q2Oa-9" style="edgeStyle=orthogonalEdgeStyle;rounded=0;orthogonalLoop=1;jettySize=auto;html=1;entryX=0.5;entryY=1;entryDx=0;entryDy=0;" edge="1" parent="1" source="TcV-RCdQcz_-0KE_Q2Oa-2" target="TcV-RCdQcz_-0KE_Q2Oa-4">
          <mxGeometry relative="1" as="geometry" />
        </mxCell>
        <mxCell id="TcV-RCdQcz_-0KE_Q2Oa-2" value="WIZARDS" style="rounded=1;whiteSpace=wrap;html=1;" vertex="1" parent="1">
          <mxGeometry x="180" y="170" width="110" height="30" as="geometry" />
        </mxCell>
        <mxCell id="TcV-RCdQcz_-0KE_Q2Oa-10" style="edgeStyle=orthogonalEdgeStyle;rounded=0;orthogonalLoop=1;jettySize=auto;html=1;entryX=0;entryY=0.5;entryDx=0;entryDy=0;" edge="1" parent="1" source="TcV-RCdQcz_-0KE_Q2Oa-3" target="TcV-RCdQcz_-0KE_Q2Oa-6">
          <mxGeometry relative="1" as="geometry">
            <Array as="points">
              <mxPoint x="185" y="40" />
              <mxPoint x="550" y="40" />
              <mxPoint x="550" y="75" />
            </Array>
          </mxGeometry>
        </mxCell>
        <mxCell id="TcV-RCdQcz_-0KE_Q2Oa-3" value="Cloning" style="rounded=1;whiteSpace=wrap;html=1;" vertex="1" parent="1">
          <mxGeometry x="140" y="60" width="90" height="30" as="geometry" />
        </mxCell>
        <mxCell id="TcV-RCdQcz_-0KE_Q2Oa-7" style="edgeStyle=orthogonalEdgeStyle;rounded=0;orthogonalLoop=1;jettySize=auto;html=1;entryX=0;entryY=0.5;entryDx=0;entryDy=0;" edge="1" parent="1" source="TcV-RCdQcz_-0KE_Q2Oa-4" target="TcV-RCdQcz_-0KE_Q2Oa-6">
          <mxGeometry relative="1" as="geometry" />
        </mxCell>
        <mxCell id="TcV-RCdQcz_-0KE_Q2Oa-4" value="FW Install" style="rounded=1;whiteSpace=wrap;html=1;" vertex="1" parent="1">
          <mxGeometry x="270" y="60" width="90" height="30" as="geometry" />
        </mxCell>
        <mxCell id="TcV-RCdQcz_-0KE_Q2Oa-12" style="edgeStyle=orthogonalEdgeStyle;rounded=0;orthogonalLoop=1;jettySize=auto;html=1;entryX=1;entryY=0.5;entryDx=0;entryDy=0;exitX=0.5;exitY=1;exitDx=0;exitDy=0;" edge="1" parent="1" source="TcV-RCdQcz_-0KE_Q2Oa-5" target="TcV-RCdQcz_-0KE_Q2Oa-11">
          <mxGeometry relative="1" as="geometry" />
        </mxCell>
        <mxCell id="TcV-RCdQcz_-0KE_Q2Oa-13" style="edgeStyle=orthogonalEdgeStyle;rounded=0;orthogonalLoop=1;jettySize=auto;html=1;entryX=0.5;entryY=1;entryDx=0;entryDy=0;" edge="1" parent="1" source="TcV-RCdQcz_-0KE_Q2Oa-5" target="TcV-RCdQcz_-0KE_Q2Oa-2">
          <mxGeometry relative="1" as="geometry" />
        </mxCell>
        <mxCell id="TcV-RCdQcz_-0KE_Q2Oa-15" style="edgeStyle=orthogonalEdgeStyle;rounded=0;orthogonalLoop=1;jettySize=auto;html=1;entryX=0;entryY=0.5;entryDx=0;entryDy=0;" edge="1" parent="1" source="TcV-RCdQcz_-0KE_Q2Oa-5" target="TcV-RCdQcz_-0KE_Q2Oa-14">
          <mxGeometry relative="1" as="geometry" />
        </mxCell>
        <mxCell id="TcV-RCdQcz_-0KE_Q2Oa-33" style="edgeStyle=orthogonalEdgeStyle;rounded=0;orthogonalLoop=1;jettySize=auto;html=1;entryX=1;entryY=0.5;entryDx=0;entryDy=0;" edge="1" parent="1" source="TcV-RCdQcz_-0KE_Q2Oa-5" target="TcV-RCdQcz_-0KE_Q2Oa-32">
          <mxGeometry relative="1" as="geometry">
            <Array as="points">
              <mxPoint x="505" y="355" />
            </Array>
          </mxGeometry>
        </mxCell>
        <mxCell id="TcV-RCdQcz_-0KE_Q2Oa-41" style="edgeStyle=orthogonalEdgeStyle;rounded=0;orthogonalLoop=1;jettySize=auto;html=1;exitX=0.5;exitY=1;exitDx=0;exitDy=0;" edge="1" parent="1" source="TcV-RCdQcz_-0KE_Q2Oa-5" target="TcV-RCdQcz_-0KE_Q2Oa-37">
          <mxGeometry relative="1" as="geometry" />
        </mxCell>
        <mxCell id="TcV-RCdQcz_-0KE_Q2Oa-42" style="edgeStyle=orthogonalEdgeStyle;rounded=0;orthogonalLoop=1;jettySize=auto;html=1;entryX=0.5;entryY=0;entryDx=0;entryDy=0;" edge="1" parent="1" source="TcV-RCdQcz_-0KE_Q2Oa-5" target="TcV-RCdQcz_-0KE_Q2Oa-35">
          <mxGeometry relative="1" as="geometry">
            <Array as="points">
              <mxPoint x="505" y="480" />
              <mxPoint x="505" y="480" />
            </Array>
          </mxGeometry>
        </mxCell>
        <mxCell id="TcV-RCdQcz_-0KE_Q2Oa-43" style="edgeStyle=orthogonalEdgeStyle;rounded=0;orthogonalLoop=1;jettySize=auto;html=1;" edge="1" parent="1" source="TcV-RCdQcz_-0KE_Q2Oa-5" target="TcV-RCdQcz_-0KE_Q2Oa-38">
          <mxGeometry relative="1" as="geometry" />
        </mxCell>
        <mxCell id="TcV-RCdQcz_-0KE_Q2Oa-45" style="edgeStyle=orthogonalEdgeStyle;rounded=0;orthogonalLoop=1;jettySize=auto;html=1;entryX=0.5;entryY=1;entryDx=0;entryDy=0;" edge="1" parent="1" source="TcV-RCdQcz_-0KE_Q2Oa-5" target="TcV-RCdQcz_-0KE_Q2Oa-44">
          <mxGeometry relative="1" as="geometry">
            <Array as="points">
              <mxPoint x="505" y="250" />
              <mxPoint x="845" y="250" />
            </Array>
          </mxGeometry>
        </mxCell>
        <mxCell id="TcV-RCdQcz_-0KE_Q2Oa-5" value="UI" style="rounded=1;whiteSpace=wrap;html=1;" vertex="1" parent="1">
          <mxGeometry x="450" y="280" width="110" height="30" as="geometry" />
        </mxCell>
        <mxCell id="TcV-RCdQcz_-0KE_Q2Oa-6" value="CanServices" style="rounded=1;whiteSpace=wrap;html=1;" vertex="1" parent="1">
          <mxGeometry x="620" y="60" width="110" height="30" as="geometry" />
        </mxCell>
        <mxCell id="TcV-RCdQcz_-0KE_Q2Oa-11" value="Tool State Manager" style="rounded=1;whiteSpace=wrap;html=1;" vertex="1" parent="1">
          <mxGeometry x="180" y="395" width="110" height="30" as="geometry" />
        </mxCell>
        <mxCell id="TcV-RCdQcz_-0KE_Q2Oa-18" style="edgeStyle=orthogonalEdgeStyle;rounded=0;orthogonalLoop=1;jettySize=auto;html=1;entryX=0.5;entryY=0;entryDx=0;entryDy=0;" edge="1" parent="1" source="TcV-RCdQcz_-0KE_Q2Oa-14" target="TcV-RCdQcz_-0KE_Q2Oa-17">
          <mxGeometry relative="1" as="geometry" />
        </mxCell>
        <mxCell id="TcV-RCdQcz_-0KE_Q2Oa-23" style="edgeStyle=orthogonalEdgeStyle;rounded=0;orthogonalLoop=1;jettySize=auto;html=1;" edge="1" parent="1" source="TcV-RCdQcz_-0KE_Q2Oa-14" target="TcV-RCdQcz_-0KE_Q2Oa-16">
          <mxGeometry relative="1" as="geometry" />
        </mxCell>
        <mxCell id="TcV-RCdQcz_-0KE_Q2Oa-14" value="Inverter Project Manager" style="rounded=1;whiteSpace=wrap;html=1;" vertex="1" parent="1">
          <mxGeometry x="640" y="280" width="110" height="30" as="geometry" />
        </mxCell>
        <mxCell id="TcV-RCdQcz_-0KE_Q2Oa-22" style="edgeStyle=orthogonalEdgeStyle;rounded=0;orthogonalLoop=1;jettySize=auto;html=1;" edge="1" parent="1" source="TcV-RCdQcz_-0KE_Q2Oa-16" target="TcV-RCdQcz_-0KE_Q2Oa-19">
          <mxGeometry relative="1" as="geometry" />
        </mxCell>
        <mxCell id="TcV-RCdQcz_-0KE_Q2Oa-16" value="Object Dictionary Manager" style="rounded=1;whiteSpace=wrap;html=1;" vertex="1" parent="1">
          <mxGeometry x="820" y="280" width="110" height="30" as="geometry" />
        </mxCell>
        <mxCell id="TcV-RCdQcz_-0KE_Q2Oa-17" value="Inverter Project" style="rounded=1;whiteSpace=wrap;html=1;" vertex="1" parent="1">
          <mxGeometry x="640" y="350" width="110" height="30" as="geometry" />
        </mxCell>
        <mxCell id="TcV-RCdQcz_-0KE_Q2Oa-19" value="Object Dictionary" style="rounded=1;whiteSpace=wrap;html=1;" vertex="1" parent="1">
          <mxGeometry x="820" y="350" width="110" height="30" as="geometry" />
        </mxCell>
        <mxCell id="TcV-RCdQcz_-0KE_Q2Oa-21" style="edgeStyle=orthogonalEdgeStyle;rounded=0;orthogonalLoop=1;jettySize=auto;html=1;entryX=1;entryY=0.5;entryDx=0;entryDy=0;dashed=1;" edge="1" parent="1" source="TcV-RCdQcz_-0KE_Q2Oa-20" target="TcV-RCdQcz_-0KE_Q2Oa-19">
          <mxGeometry relative="1" as="geometry" />
        </mxCell>
        <mxCell id="TcV-RCdQcz_-0KE_Q2Oa-20" value="EPF File" style="shape=document;whiteSpace=wrap;html=1;boundedLbl=1;" vertex="1" parent="1">
          <mxGeometry x="960" y="350" width="100" height="30" as="geometry" />
        </mxCell>
        <mxCell id="TcV-RCdQcz_-0KE_Q2Oa-24" value="Authentication Manager" style="rounded=1;whiteSpace=wrap;html=1;" vertex="1" parent="1">
          <mxGeometry x="420" y="160" width="110" height="30" as="geometry" />
        </mxCell>
        <mxCell id="TcV-RCdQcz_-0KE_Q2Oa-25" value="Authorisation Manager" style="rounded=1;whiteSpace=wrap;html=1;" vertex="1" parent="1">
          <mxGeometry x="420" y="200" width="110" height="30" as="geometry" />
        </mxCell>
        <mxCell id="TcV-RCdQcz_-0KE_Q2Oa-29" style="edgeStyle=orthogonalEdgeStyle;rounded=0;orthogonalLoop=1;jettySize=auto;html=1;entryX=0.5;entryY=1;entryDx=0;entryDy=0;" edge="1" parent="1" source="TcV-RCdQcz_-0KE_Q2Oa-26" target="TcV-RCdQcz_-0KE_Q2Oa-17">
          <mxGeometry relative="1" as="geometry" />
        </mxCell>
        <mxCell id="TcV-RCdQcz_-0KE_Q2Oa-26" value="OnlineDeviceManager" style="rounded=1;whiteSpace=wrap;html=1;" vertex="1" parent="1">
          <mxGeometry x="630" y="450" width="130" height="30" as="geometry" />
        </mxCell>
        <mxCell id="TcV-RCdQcz_-0KE_Q2Oa-31" value="CANTalk Protocol" style="rounded=1;whiteSpace=wrap;html=1;" vertex="1" parent="1">
          <mxGeometry x="620" y="100" width="110" height="30" as="geometry" />
        </mxCell>
        <mxCell id="TcV-RCdQcz_-0KE_Q2Oa-32" value="CanUSB Device Manager" style="rounded=1;whiteSpace=wrap;html=1;" vertex="1" parent="1">
          <mxGeometry x="170" y="340" width="130" height="30" as="geometry" />
        </mxCell>
        <mxCell id="TcV-RCdQcz_-0KE_Q2Oa-34" value="Navigation" style="rounded=1;whiteSpace=wrap;html=1;" vertex="1" parent="1">
          <mxGeometry x="550" y="160" width="110" height="30" as="geometry" />
        </mxCell>
        <mxCell id="TcV-RCdQcz_-0KE_Q2Oa-35" value="Transient Oscilloscope" style="rounded=1;whiteSpace=wrap;html=1;" vertex="1" parent="1">
          <mxGeometry x="450" y="500" width="110" height="30" as="geometry" />
        </mxCell>
        <mxCell id="TcV-RCdQcz_-0KE_Q2Oa-36" value="Charting base" style="rounded=1;whiteSpace=wrap;html=1;" vertex="1" parent="1">
          <mxGeometry x="450" y="640" width="110" height="30" as="geometry" />
        </mxCell>
        <mxCell id="TcV-RCdQcz_-0KE_Q2Oa-39" style="edgeStyle=orthogonalEdgeStyle;rounded=0;orthogonalLoop=1;jettySize=auto;html=1;entryX=0.5;entryY=0;entryDx=0;entryDy=0;" edge="1" parent="1" source="TcV-RCdQcz_-0KE_Q2Oa-37" target="TcV-RCdQcz_-0KE_Q2Oa-36">
          <mxGeometry relative="1" as="geometry" />
        </mxCell>
        <mxCell id="TcV-RCdQcz_-0KE_Q2Oa-37" value="SDO Charting" style="rounded=1;whiteSpace=wrap;html=1;" vertex="1" parent="1">
          <mxGeometry x="360" y="570" width="110" height="30" as="geometry" />
        </mxCell>
        <mxCell id="TcV-RCdQcz_-0KE_Q2Oa-40" style="edgeStyle=orthogonalEdgeStyle;rounded=0;orthogonalLoop=1;jettySize=auto;html=1;entryX=0.5;entryY=0;entryDx=0;entryDy=0;" edge="1" parent="1" source="TcV-RCdQcz_-0KE_Q2Oa-38" target="TcV-RCdQcz_-0KE_Q2Oa-36">
          <mxGeometry relative="1" as="geometry" />
        </mxCell>
        <mxCell id="TcV-RCdQcz_-0KE_Q2Oa-38" value="PDO Charting" style="rounded=1;whiteSpace=wrap;html=1;" vertex="1" parent="1">
          <mxGeometry x="530" y="570" width="110" height="30" as="geometry" />
        </mxCell>
        <mxCell id="TcV-RCdQcz_-0KE_Q2Oa-44" value="CANOpen Simulator" style="rounded=1;whiteSpace=wrap;html=1;" vertex="1" parent="1">
          <mxGeometry x="790" y="160" width="110" height="30" as="geometry" />
        </mxCell>
      </root>
    </mxGraphModel>
  </diagram>
</mxfile>
